# MagicaVoxel @ Ephtracy

# group
o 

# material
mtllib Колунин VR kartina1.mtl
usemtl palette

# normals
vn -1 0 0
vn 1 0 0
vn 0 0 1
vn 0 0 -1
vn 0 -1 0
vn 0 1 0

# texcoords
vt 0.0214844 0.5
vt 0.0332031 0.5
vt 0.0371094 0.5
vt 0.365234 0.5
vt 0.369141 0.5
vt 0.705078 0.5
vt 0.986328 0.5
vt 0.990234 0.5

# verts
v 1.8 1 1
v 1.8 1 -1.6
v 1.8 1.1 0.9
v 1.8 1.1 -1.5
v 1.8 1.2 0.7
v 1.8 1.2 -0.1
v 1.8 1.3 0.7
v 1.8 1.3 0.6
v 1.8 1.3 -1.19209e-07
v 1.8 1.3 -0.1
v 1.8 1.4 0.6
v 1.8 1.4 0.5
v 1.8 1.4 0.0999999
v 1.8 1.4 -1.19209e-07
v 1.8 1.5 0.5
v 1.8 1.5 0.4
v 1.8 1.5 0.2
v 1.8 1.5 0.0999999
v 1.8 1.5 -0.5
v 1.8 1.5 -1.4
v 1.8 1.6 0.4
v 1.8 1.6 0.2
v 1.8 1.6 -0.5
v 1.8 1.6 -0.6
v 1.8 1.6 -1.3
v 1.8 1.6 -1.4
v 1.8 1.7 0.8
v 1.8 1.7 0.7
v 1.8 1.7 0.6
v 1.8 1.7 0.5
v 1.8 1.7 -0.6
v 1.8 1.7 -0.7
v 1.8 1.7 -1.2
v 1.8 1.7 -1.3
v 1.8 1.8 0.7
v 1.8 1.8 0.6
v 1.8 1.8 0.2
v 1.8 1.8 -0.5
v 1.8 1.8 -0.7
v 1.8 1.8 -0.8
v 1.8 1.8 -1.1
v 1.8 1.8 -1.2
v 1.8 1.9 0.8
v 1.8 1.9 0.7
v 1.8 1.9 0.2
v 1.8 1.9 0.0999999
v 1.8 1.9 -0.4
v 1.8 1.9 -0.5
v 1.8 1.9 -0.8
v 1.8 1.9 -0.9
v 1.8 1.9 -1
v 1.8 1.9 -1.1
v 1.8 2 0.9
v 1.8 2 0.7
v 1.8 2 0.6
v 1.8 2 0.5
v 1.8 2 0.4
v 1.8 2 0.0999999
v 1.8 2 -1.19209e-07
v 1.8 2 -0.3
v 1.8 2 -0.4
v 1.8 2 -0.9
v 1.8 2 -1
v 1.8 2 -1.5
v 1.8 2.1 0.6
v 1.8 2.1 0.5
v 1.8 2.1 0.4
v 1.8 2.1 0.3
v 1.8 2.1 0.2
v 1.8 2.1 -1.19209e-07
v 1.8 2.1 -0.1
v 1.8 2.1 -0.2
v 1.8 2.1 -0.3
v 1.8 2.1 -1.2
v 1.8 2.1 -1.3
v 1.8 2.2 0.4
v 1.8 2.2 0.3
v 1.8 2.2 0.2
v 1.8 2.2 0.0999999
v 1.8 2.2 -0.1
v 1.8 2.2 -0.2
v 1.8 2.2 -0.7
v 1.8 2.2 -0.8
v 1.8 2.2 -1.1
v 1.8 2.2 -1.2
v 1.8 2.2 -1.3
v 1.8 2.2 -1.4
v 1.8 2.3 0.4
v 1.8 2.3 0.3
v 1.8 2.3 0.2
v 1.8 2.3 0.0999999
v 1.8 2.3 -0.6
v 1.8 2.3 -0.7
v 1.8 2.3 -0.8
v 1.8 2.3 -0.9
v 1.8 2.3 -1.1
v 1.8 2.3 -1.2
v 1.8 2.3 -1.3
v 1.8 2.3 -1.4
v 1.8 2.4 -0.6
v 1.8 2.4 -0.7
v 1.8 2.4 -0.8
v 1.8 2.4 -0.9
v 1.8 2.5 -1.1
v 1.8 2.5 -1.2
v 1.8 2.5 -1.4
v 1.8 2.5 -1.5
v 1.8 2.6 0.7
v 1.8 2.6 0.6
v 1.8 2.6 -1.19209e-07
v 1.8 2.6 -0.1
v 1.8 2.6 -0.6
v 1.8 2.6 -0.8
v 1.8 2.6 -1.1
v 1.8 2.6 -1.2
v 1.8 2.6 -1.4
v 1.8 2.6 -1.5
v 1.8 2.7 0.8
v 1.8 2.7 0.7
v 1.8 2.7 0.6
v 1.8 2.7 0.5
v 1.8 2.7 0.0999999
v 1.8 2.7 -1.19209e-07
v 1.8 2.7 -0.1
v 1.8 2.7 -0.2
v 1.8 2.7 -0.5
v 1.8 2.7 -0.6
v 1.8 2.7 -0.8
v 1.8 2.7 -0.9
v 1.8 2.8 0.8
v 1.8 2.8 0.7
v 1.8 2.8 0.6
v 1.8 2.8 0.5
v 1.8 2.8 0.0999999
v 1.8 2.8 -1.19209e-07
v 1.8 2.8 -0.1
v 1.8 2.8 -0.2
v 1.8 2.8 -0.5
v 1.8 2.8 -0.6
v 1.8 2.8 -0.8
v 1.8 2.8 -0.9
v 1.8 2.8 -1.1
v 1.8 2.8 -1.2
v 1.8 2.8 -1.4
v 1.8 2.8 -1.5
v 1.8 2.9 0.9
v 1.8 2.9 -1.1
v 1.8 2.9 -1.2
v 1.8 2.9 -1.4
v 1.8 2.9 -1.5
v 1.8 3 1
v 1.8 3 -1.6
v 2 1 1
v 2 1 -1.6
v 2 3 1
v 2 3 -1.6
v 1.8 1 1
v 1.8 3 1
v 2 1 1
v 2 3 1
v 1.8 1 -1.6
v 1.8 3 -1.6
v 2 1 -1.6
v 2 3 -1.6
v 1.8 1 1
v 2 1 1
v 1.8 1 -1.6
v 2 1 -1.6
v 1.8 3 1
v 2 3 1
v 1.8 3 -1.6
v 2 3 -1.6

# faces
f 3/4/1 2/4/1 1/4/1
f 4/4/1 2/4/1 3/4/1
f 5/2/1 4/2/1 3/2/1
f 6/2/1 4/2/1 5/2/1
f 7/2/1 5/2/1 3/2/1
f 7/3/1 6/3/1 5/3/1
f 8/3/1 6/3/1 7/3/1
f 9/3/1 6/3/1 8/3/1
f 10/2/1 4/2/1 6/2/1
f 10/3/1 6/3/1 9/3/1
f 11/3/1 9/3/1 8/3/1
f 11/2/1 8/2/1 7/2/1
f 12/3/1 9/3/1 11/3/1
f 13/3/1 9/3/1 12/3/1
f 14/2/1 10/2/1 9/2/1
f 14/3/1 9/3/1 13/3/1
f 15/3/1 13/3/1 12/3/1
f 15/2/1 12/2/1 11/2/1
f 16/3/1 13/3/1 15/3/1
f 17/3/1 13/3/1 16/3/1
f 18/2/1 14/2/1 13/2/1
f 18/3/1 13/3/1 17/3/1
f 19/2/1 4/2/1 10/2/1
f 19/2/1 14/2/1 18/2/1
f 19/2/1 10/2/1 14/2/1
f 20/2/1 4/2/1 19/2/1
f 21/2/1 16/2/1 15/2/1
f 21/3/1 17/3/1 16/3/1
f 22/2/1 18/2/1 17/2/1
f 22/3/1 17/3/1 21/3/1
f 22/2/1 19/2/1 18/2/1
f 23/3/1 20/3/1 19/3/1
f 23/2/1 19/2/1 22/2/1
f 24/3/1 20/3/1 23/3/1
f 25/3/1 20/3/1 24/3/1
f 26/2/1 4/2/1 20/2/1
f 26/3/1 20/3/1 25/3/1
f 27/2/1 21/2/1 15/2/1
f 27/2/1 7/2/1 3/2/1
f 27/2/1 11/2/1 7/2/1
f 27/2/1 24/2/1 23/2/1
f 27/2/1 23/2/1 22/2/1
f 27/2/1 15/2/1 11/2/1
f 27/2/1 22/2/1 21/2/1
f 28/2/1 24/2/1 27/2/1
f 29/2/1 24/2/1 28/2/1
f 30/2/1 24/2/1 29/2/1
f 31/3/1 25/3/1 24/3/1
f 31/2/1 24/2/1 30/2/1
f 32/3/1 25/3/1 31/3/1
f 33/3/1 25/3/1 32/3/1
f 34/2/1 26/2/1 25/2/1
f 34/3/1 25/3/1 33/3/1
f 35/5/1 28/5/1 27/5/1
f 35/2/1 29/2/1 28/2/1
f 36/5/1 30/5/1 29/5/1
f 36/2/1 29/2/1 35/2/1
f 37/2/1 31/2/1 30/2/1
f 37/2/1 32/2/1 31/2/1
f 38/2/1 32/2/1 37/2/1
f 39/3/1 33/3/1 32/3/1
f 39/2/1 32/2/1 38/2/1
f 40/3/1 33/3/1 39/3/1
f 41/3/1 33/3/1 40/3/1
f 42/2/1 34/2/1 33/2/1
f 42/3/1 33/3/1 41/3/1
f 43/5/1 35/5/1 27/5/1
f 43/2/1 27/2/1 3/2/1
f 43/5/1 36/5/1 35/5/1
f 44/5/1 36/5/1 43/5/1
f 45/3/1 38/3/1 37/3/1
f 45/2/1 37/2/1 30/2/1
f 46/3/1 38/3/1 45/3/1
f 47/3/1 38/3/1 46/3/1
f 48/2/1 40/2/1 39/2/1
f 48/3/1 38/3/1 47/3/1
f 48/2/1 39/2/1 38/2/1
f 49/3/1 41/3/1 40/3/1
f 49/2/1 40/2/1 48/2/1
f 50/3/1 41/3/1 49/3/1
f 51/3/1 41/3/1 50/3/1
f 52/2/1 42/2/1 41/2/1
f 52/3/1 41/3/1 51/3/1
f 53/4/1 3/4/1 1/4/1
f 53/2/1 44/2/1 43/2/1
f 53/2/1 43/2/1 3/2/1
f 54/5/1 36/5/1 44/5/1
f 54/2/1 44/2/1 53/2/1
f 55/5/1 30/5/1 36/5/1
f 55/5/1 36/5/1 54/5/1
f 56/2/1 46/2/1 45/2/1
f 56/5/1 30/5/1 55/5/1
f 56/2/1 45/2/1 30/2/1
f 57/2/1 46/2/1 56/2/1
f 58/3/1 47/3/1 46/3/1
f 58/2/1 46/2/1 57/2/1
f 59/3/1 47/3/1 58/3/1
f 60/3/1 47/3/1 59/3/1
f 61/2/1 48/2/1 47/2/1
f 61/3/1 47/3/1 60/3/1
f 61/2/1 50/2/1 49/2/1
f 61/2/1 49/2/1 48/2/1
f 62/3/1 51/3/1 50/3/1
f 62/2/1 50/2/1 61/2/1
f 63/2/1 52/2/1 51/2/1
f 63/3/1 51/3/1 62/3/1
f 64/2/1 42/2/1 52/2/1
f 64/2/1 52/2/1 63/2/1
f 64/4/1 2/4/1 4/4/1
f 64/2/1 4/2/1 26/2/1
f 64/2/1 34/2/1 42/2/1
f 64/2/1 26/2/1 34/2/1
f 65/5/1 56/5/1 55/5/1
f 65/6/1 55/6/1 54/6/1
f 65/6/1 54/6/1 53/6/1
f 66/8/1 57/8/1 56/8/1
f 66/5/1 56/5/1 65/5/1
f 67/6/1 58/6/1 57/6/1
f 67/8/1 57/8/1 66/8/1
f 67/6/1 59/6/1 58/6/1
f 68/6/1 59/6/1 67/6/1
f 69/6/1 59/6/1 68/6/1
f 70/3/1 60/3/1 59/3/1
f 70/6/1 59/6/1 69/6/1
f 71/3/1 60/3/1 70/3/1
f 72/3/1 60/3/1 71/3/1
f 73/6/1 63/6/1 62/6/1
f 73/3/1 60/3/1 72/3/1
f 73/6/1 61/6/1 60/6/1
f 73/6/1 64/6/1 63/6/1
f 73/6/1 62/6/1 61/6/1
f 74/6/1 64/6/1 73/6/1
f 75/6/1 64/6/1 74/6/1
f 76/6/1 66/6/1 65/6/1
f 76/6/1 68/6/1 67/6/1
f 76/6/1 67/6/1 66/6/1
f 77/7/1 69/7/1 68/7/1
f 77/6/1 68/6/1 76/6/1
f 78/6/1 71/6/1 70/6/1
f 78/7/1 69/7/1 77/7/1
f 78/6/1 70/6/1 69/6/1
f 79/6/1 71/6/1 78/6/1
f 80/3/1 72/3/1 71/3/1
f 80/6/1 71/6/1 79/6/1
f 81/6/1 73/6/1 72/6/1
f 81/3/1 72/3/1 80/3/1
f 81/6/1 74/6/1 73/6/1
f 82/6/1 74/6/1 81/6/1
f 83/6/1 74/6/1 82/6/1
f 84/6/1 74/6/1 83/6/1
f 85/7/1 75/7/1 74/7/1
f 85/6/1 74/6/1 84/6/1
f 86/6/1 64/6/1 75/6/1
f 86/7/1 75/7/1 85/7/1
f 87/6/1 64/6/1 86/6/1
f 88/7/1 77/7/1 76/7/1
f 88/6/1 76/6/1 65/6/1
f 89/6/1 78/6/1 77/6/1
f 89/7/1 77/7/1 88/7/1
f 90/7/1 79/7/1 78/7/1
f 90/6/1 78/6/1 89/6/1
f 91/6/1 80/6/1 79/6/1
f 91/7/1 79/7/1 90/7/1
f 91/6/1 81/6/1 80/6/1
f 91/6/1 82/6/1 81/6/1
f 92/6/1 82/6/1 91/6/1
f 93/7/1 83/7/1 82/7/1
f 93/6/1 82/6/1 92/6/1
f 94/6/1 84/6/1 83/6/1
f 94/7/1 83/7/1 93/7/1
f 95/6/1 84/6/1 94/6/1
f 96/7/1 85/7/1 84/7/1
f 96/6/1 84/6/1 95/6/1
f 97/6/1 86/6/1 85/6/1
f 97/7/1 85/7/1 96/7/1
f 98/7/1 87/7/1 86/7/1
f 98/6/1 86/6/1 97/6/1
f 99/6/1 64/6/1 87/6/1
f 99/7/1 87/7/1 98/7/1
f 100/6/1 89/6/1 88/6/1
f 100/6/1 90/6/1 89/6/1
f 100/7/1 93/7/1 92/7/1
f 100/6/1 92/6/1 91/6/1
f 100/6/1 91/6/1 90/6/1
f 101/6/1 94/6/1 93/6/1
f 101/7/1 93/7/1 100/7/1
f 102/7/1 95/7/1 94/7/1
f 102/6/1 94/6/1 101/6/1
f 103/6/1 98/6/1 97/6/1
f 103/7/1 95/7/1 102/7/1
f 103/6/1 99/6/1 98/6/1
f 103/6/1 96/6/1 95/6/1
f 103/6/1 97/6/1 96/6/1
f 104/6/1 101/6/1 100/6/1
f 104/6/1 99/6/1 103/6/1
f 104/6/1 103/6/1 102/6/1
f 104/6/1 102/6/1 101/6/1
f 105/6/1 99/6/1 104/6/1
f 106/6/1 64/6/1 99/6/1
f 106/6/1 99/6/1 105/6/1
f 107/4/1 2/4/1 64/4/1
f 107/6/1 64/6/1 106/6/1
f 108/6/1 100/6/1 88/6/1
f 108/6/1 65/6/1 53/6/1
f 108/6/1 88/6/1 65/6/1
f 108/6/1 104/6/1 100/6/1
f 109/6/1 104/6/1 108/6/1
f 110/6/1 104/6/1 109/6/1
f 111/6/1 104/6/1 110/6/1
f 112/6/1 104/6/1 111/6/1
f 113/6/1 104/6/1 112/6/1
f 114/1/1 105/1/1 104/1/1
f 114/6/1 104/6/1 113/6/1
f 115/6/1 106/6/1 105/6/1
f 115/1/1 105/1/1 114/1/1
f 116/1/1 107/1/1 106/1/1
f 116/6/1 106/6/1 115/6/1
f 117/4/1 2/4/1 107/4/1
f 117/1/1 107/1/1 116/1/1
f 118/6/1 108/6/1 53/6/1
f 119/7/1 109/7/1 108/7/1
f 119/6/1 108/6/1 118/6/1
f 120/6/1 110/6/1 109/6/1
f 120/7/1 109/7/1 119/7/1
f 121/6/1 110/6/1 120/6/1
f 122/6/1 110/6/1 121/6/1
f 123/7/1 111/7/1 110/7/1
f 123/6/1 110/6/1 122/6/1
f 124/6/1 112/6/1 111/6/1
f 124/7/1 111/7/1 123/7/1
f 125/6/1 112/6/1 124/6/1
f 126/6/1 112/6/1 125/6/1
f 127/7/1 113/7/1 112/7/1
f 127/6/1 112/6/1 126/6/1
f 128/6/1 114/6/1 113/6/1
f 128/7/1 113/7/1 127/7/1
f 128/6/1 115/6/1 114/6/1
f 129/6/1 115/6/1 128/6/1
f 130/6/1 118/6/1 53/6/1
f 130/7/1 119/7/1 118/7/1
f 131/6/1 120/6/1 119/6/1
f 131/7/1 119/7/1 130/7/1
f 132/7/1 121/7/1 120/7/1
f 132/6/1 120/6/1 131/6/1
f 133/6/1 122/6/1 121/6/1
f 133/7/1 121/7/1 132/7/1
f 134/7/1 123/7/1 122/7/1
f 134/6/1 122/6/1 133/6/1
f 135/6/1 124/6/1 123/6/1
f 135/7/1 123/7/1 134/7/1
f 136/7/1 125/7/1 124/7/1
f 136/6/1 124/6/1 135/6/1
f 137/6/1 126/6/1 125/6/1
f 137/7/1 125/7/1 136/7/1
f 138/7/1 127/7/1 126/7/1
f 138/6/1 126/6/1 137/6/1
f 139/6/1 128/6/1 127/6/1
f 139/7/1 127/7/1 138/7/1
f 140/7/1 129/7/1 128/7/1
f 140/6/1 128/6/1 139/6/1
f 141/6/1 115/6/1 129/6/1
f 141/7/1 129/7/1 140/7/1
f 142/6/1 115/6/1 141/6/1
f 143/1/1 116/1/1 115/1/1
f 143/6/1 115/6/1 142/6/1
f 144/6/1 117/6/1 116/6/1
f 144/1/1 116/1/1 143/1/1
f 145/4/1 2/4/1 117/4/1
f 145/6/1 117/6/1 144/6/1
f 146/6/1 136/6/1 135/6/1
f 146/6/1 137/6/1 136/6/1
f 146/6/1 142/6/1 141/6/1
f 146/6/1 141/6/1 140/6/1
f 146/6/1 138/6/1 137/6/1
f 146/6/1 134/6/1 133/6/1
f 146/6/1 131/6/1 130/6/1
f 146/6/1 130/6/1 53/6/1
f 146/4/1 53/4/1 1/4/1
f 146/6/1 133/6/1 132/6/1
f 146/6/1 132/6/1 131/6/1
f 146/6/1 139/6/1 138/6/1
f 146/6/1 140/6/1 139/6/1
f 146/6/1 135/6/1 134/6/1
f 147/1/1 143/1/1 142/1/1
f 147/6/1 142/6/1 146/6/1
f 148/6/1 144/6/1 143/6/1
f 148/1/1 143/1/1 147/1/1
f 149/1/1 145/1/1 144/1/1
f 149/6/1 144/6/1 148/6/1
f 150/4/1 2/4/1 145/4/1
f 150/1/1 145/1/1 149/1/1
f 151/4/1 149/4/1 148/4/1
f 151/4/1 148/4/1 147/4/1
f 151/4/1 150/4/1 149/4/1
f 151/4/1 147/4/1 146/4/1
f 151/4/1 146/4/1 1/4/1
f 152/4/1 2/4/1 150/4/1
f 152/4/1 150/4/1 151/4/1
f 153/4/2 154/4/2 155/4/2
f 155/4/2 154/4/2 156/4/2
f 159/4/3 158/4/3 157/4/3
f 160/4/3 158/4/3 159/4/3
f 161/4/4 162/4/4 163/4/4
f 163/4/4 162/4/4 164/4/4
f 167/4/5 166/4/5 165/4/5
f 168/4/5 166/4/5 167/4/5
f 169/4/6 170/4/6 171/4/6
f 171/4/6 170/4/6 172/4/6
