# MagicaVoxel @ Ephtracy

# group
o 

# material
mtllib Колунин Vr Table.mtl
usemtl palette

# normals
vn -1 0 0
vn 1 0 0
vn 0 0 1
vn 0 0 -1
vn 0 -1 0
vn 0 1 0

# texcoords
vt 0.0644531 0.5
vt 0.369141 0.5
vt 0.373047 0.5

# verts
v -1.5 0.9 0.6
v -1.5 0.9 -1.4
v -1.5 1.1 0.6
v -1.5 1.1 -1.4
v -1.4 0.8 0.4
v -1.4 0.8 -0.1
v -1.4 0.8 -0.7
v -1.4 0.8 -1.2
v -1.4 0.9 0.4
v -1.4 0.9 -0.1
v -1.4 0.9 -0.7
v -1.4 0.9 -1.2
v -1.3 0 0.3
v -1.3 0 -5.96046e-08
v -1.3 0 -0.8
v -1.3 0 -1.1
v -1.3 0.8 0.3
v -1.3 0.8 -5.96046e-08
v -1.3 0.8 -0.8
v -1.3 0.8 -1.1
v 0.9 0.8 0.4
v 0.9 0.8 -0.1
v 0.9 0.8 -0.7
v 0.9 0.8 -1.2
v 0.9 0.9 0.4
v 0.9 0.9 -0.1
v 0.9 0.9 -0.7
v 0.9 0.9 -1.2
v 1 0 0.3
v 1 0 -5.96046e-08
v 1 0 -0.8
v 1 0 -1.1
v 1 0.8 0.3
v 1 0.8 -5.96046e-08
v 1 0.8 -0.8
v 1 0.8 -1.1
v 1.3 1 0.4
v 1.3 1 -1.2
v 1.3 1.1 0.4
v 1.3 1.1 -1.2
v -1.3 1 0.4
v -1.3 1 -1.2
v -1.3 1.1 0.4
v -1.3 1.1 -1.2
v -1 0 0.3
v -1 0 -5.96046e-08
v -1 0 -0.8
v -1 0 -1.1
v -1 0.8 0.3
v -1 0.8 -5.96046e-08
v -1 0.8 -0.8
v -1 0.8 -1.1
v -0.9 0.8 0.4
v -0.9 0.8 -0.1
v -0.9 0.8 -0.7
v -0.9 0.8 -1.2
v -0.9 0.9 0.4
v -0.9 0.9 -0.1
v -0.9 0.9 -0.7
v -0.9 0.9 -1.2
v 1.3 0 0.3
v 1.3 0 -5.96046e-08
v 1.3 0 -0.8
v 1.3 0 -1.1
v 1.3 0.8 0.3
v 1.3 0.8 -5.96046e-08
v 1.3 0.8 -0.8
v 1.3 0.8 -1.1
v 1.4 0.8 0.4
v 1.4 0.8 -0.1
v 1.4 0.8 -0.7
v 1.4 0.8 -1.2
v 1.4 0.9 0.4
v 1.4 0.9 -0.1
v 1.4 0.9 -0.7
v 1.4 0.9 -1.2
v 1.5 0.9 0.6
v 1.5 0.9 -1.4
v 1.5 1.1 0.6
v 1.5 1.1 -1.4
v -1.5 0.9 0.6
v -1.5 1.1 0.6
v 1.5 0.9 0.6
v 1.5 1.1 0.6
v -1.4 0.8 0.4
v -1.4 0.9 0.4
v -0.9 0.8 0.4
v -0.9 0.9 0.4
v 0.9 0.8 0.4
v 0.9 0.9 0.4
v 1.4 0.8 0.4
v 1.4 0.9 0.4
v -1.3 0 0.3
v -1.3 0.8 0.3
v -1 0 0.3
v -1 0.8 0.3
v 1 0 0.3
v 1 0.8 0.3
v 1.3 0 0.3
v 1.3 0.8 0.3
v -1.4 0.8 -0.7
v -1.4 0.9 -0.7
v -0.9 0.8 -0.7
v -0.9 0.9 -0.7
v 0.9 0.8 -0.7
v 0.9 0.9 -0.7
v 1.4 0.8 -0.7
v 1.4 0.9 -0.7
v -1.3 0 -0.8
v -1.3 0.8 -0.8
v -1 0 -0.8
v -1 0.8 -0.8
v 1 0 -0.8
v 1 0.8 -0.8
v 1.3 0 -0.8
v 1.3 0.8 -0.8
v -1.3 1 -1.2
v -1.3 1.1 -1.2
v 1.3 1 -1.2
v 1.3 1.1 -1.2
v -1.3 1 0.4
v -1.3 1.1 0.4
v 1.3 1 0.4
v 1.3 1.1 0.4
v -1.3 0 -5.96046e-08
v -1.3 0.8 -5.96046e-08
v -1 0 -5.96046e-08
v -1 0.8 -5.96046e-08
v 1 0 -5.96046e-08
v 1 0.8 -5.96046e-08
v 1.3 0 -5.96046e-08
v 1.3 0.8 -5.96046e-08
v -1.4 0.8 -0.1
v -1.4 0.9 -0.1
v -0.9 0.8 -0.1
v -0.9 0.9 -0.1
v 0.9 0.8 -0.1
v 0.9 0.9 -0.1
v 1.4 0.8 -0.1
v 1.4 0.9 -0.1
v -1.3 0 -1.1
v -1.3 0.8 -1.1
v -1 0 -1.1
v -1 0.8 -1.1
v 1 0 -1.1
v 1 0.8 -1.1
v 1.3 0 -1.1
v 1.3 0.8 -1.1
v -1.4 0.8 -1.2
v -1.4 0.9 -1.2
v -0.9 0.8 -1.2
v -0.9 0.9 -1.2
v 0.9 0.8 -1.2
v 0.9 0.9 -1.2
v 1.4 0.8 -1.2
v 1.4 0.9 -1.2
v -1.5 0.9 -1.4
v -1.5 1.1 -1.4
v 1.5 0.9 -1.4
v 1.5 1.1 -1.4
v -1.3 0 0.3
v -1 0 0.3
v 1 0 0.3
v 1.3 0 0.3
v -1.3 0 -5.96046e-08
v -1 0 -5.96046e-08
v 1 0 -5.96046e-08
v 1.3 0 -5.96046e-08
v -1.3 0 -0.8
v -1 0 -0.8
v 1 0 -0.8
v 1.3 0 -0.8
v -1.3 0 -1.1
v -1 0 -1.1
v 1 0 -1.1
v 1.3 0 -1.1
v -1.4 0.8 0.4
v -0.9 0.8 0.4
v 0.9 0.8 0.4
v 1.4 0.8 0.4
v -1.3 0.8 0.3
v -1 0.8 0.3
v 1 0.8 0.3
v 1.3 0.8 0.3
v -1.3 0.8 -5.96046e-08
v -1 0.8 -5.96046e-08
v 1 0.8 -5.96046e-08
v 1.3 0.8 -5.96046e-08
v -1.4 0.8 -0.1
v -0.9 0.8 -0.1
v 0.9 0.8 -0.1
v 1.4 0.8 -0.1
v -1.4 0.8 -0.7
v -0.9 0.8 -0.7
v 0.9 0.8 -0.7
v 1.4 0.8 -0.7
v -1.3 0.8 -0.8
v -1 0.8 -0.8
v 1 0.8 -0.8
v 1.3 0.8 -0.8
v -1.3 0.8 -1.1
v -1 0.8 -1.1
v 1 0.8 -1.1
v 1.3 0.8 -1.1
v -1.4 0.8 -1.2
v -0.9 0.8 -1.2
v 0.9 0.8 -1.2
v 1.4 0.8 -1.2
v -1.5 0.9 0.6
v 1.5 0.9 0.6
v -1.4 0.9 0.4
v -0.9 0.9 0.4
v 0.9 0.9 0.4
v 1.4 0.9 0.4
v -1.4 0.9 -0.1
v -0.9 0.9 -0.1
v 0.9 0.9 -0.1
v 1.4 0.9 -0.1
v -1.4 0.9 -0.7
v -0.9 0.9 -0.7
v 0.9 0.9 -0.7
v 1.4 0.9 -0.7
v -1.4 0.9 -1.2
v -0.9 0.9 -1.2
v 0.9 0.9 -1.2
v 1.4 0.9 -1.2
v -1.5 0.9 -1.4
v 1.5 0.9 -1.4
v -1.3 1 0.4
v 1.3 1 0.4
v -1.3 1 -1.2
v 1.3 1 -1.2
v -1.5 1.1 0.6
v 1.5 1.1 0.6
v -1.4 1.1 0.5
v 1.4 1.1 0.5
v -1.3 1.1 0.4
v 1.3 1.1 0.4
v -1.3 1.1 -1.2
v 1.3 1.1 -1.2
v -1.4 1.1 -1.3
v 1.4 1.1 -1.3
v -1.5 1.1 -1.4
v 1.5 1.1 -1.4

# faces
f 3/2/1 2/2/1 1/2/1
f 4/2/1 2/2/1 3/2/1
f 9/1/1 6/1/1 5/1/1
f 10/1/1 6/1/1 9/1/1
f 11/1/1 8/1/1 7/1/1
f 12/1/1 8/1/1 11/1/1
f 17/3/1 14/3/1 13/3/1
f 18/3/1 14/3/1 17/3/1
f 19/3/1 16/3/1 15/3/1
f 20/3/1 16/3/1 19/3/1
f 25/1/1 22/1/1 21/1/1
f 26/1/1 22/1/1 25/1/1
f 27/1/1 24/1/1 23/1/1
f 28/1/1 24/1/1 27/1/1
f 33/3/1 30/3/1 29/3/1
f 34/3/1 30/3/1 33/3/1
f 35/3/1 32/3/1 31/3/1
f 36/3/1 32/3/1 35/3/1
f 39/1/1 38/1/1 37/1/1
f 40/1/1 38/1/1 39/1/1
f 41/1/2 42/1/2 43/1/2
f 43/1/2 42/1/2 44/1/2
f 45/3/2 46/3/2 49/3/2
f 49/3/2 46/3/2 50/3/2
f 47/3/2 48/3/2 51/3/2
f 51/3/2 48/3/2 52/3/2
f 53/1/2 54/1/2 57/1/2
f 57/1/2 54/1/2 58/1/2
f 55/1/2 56/1/2 59/1/2
f 59/1/2 56/1/2 60/1/2
f 61/3/2 62/3/2 65/3/2
f 65/3/2 62/3/2 66/3/2
f 63/3/2 64/3/2 67/3/2
f 67/3/2 64/3/2 68/3/2
f 69/1/2 70/1/2 73/1/2
f 73/1/2 70/1/2 74/1/2
f 71/1/2 72/1/2 75/1/2
f 75/1/2 72/1/2 76/1/2
f 77/2/2 78/2/2 79/2/2
f 79/2/2 78/2/2 80/2/2
f 83/2/3 82/2/3 81/2/3
f 84/2/3 82/2/3 83/2/3
f 87/1/3 86/1/3 85/1/3
f 88/1/3 86/1/3 87/1/3
f 91/1/3 90/1/3 89/1/3
f 92/1/3 90/1/3 91/1/3
f 95/3/3 94/3/3 93/3/3
f 96/3/3 94/3/3 95/3/3
f 99/3/3 98/3/3 97/3/3
f 100/3/3 98/3/3 99/3/3
f 103/1/3 102/1/3 101/1/3
f 104/1/3 102/1/3 103/1/3
f 107/1/3 106/1/3 105/1/3
f 108/1/3 106/1/3 107/1/3
f 111/3/3 110/3/3 109/3/3
f 112/3/3 110/3/3 111/3/3
f 115/3/3 114/3/3 113/3/3
f 116/3/3 114/3/3 115/3/3
f 119/1/3 118/1/3 117/1/3
f 120/1/3 118/1/3 119/1/3
f 121/1/4 122/1/4 123/1/4
f 123/1/4 122/1/4 124/1/4
f 125/3/4 126/3/4 127/3/4
f 127/3/4 126/3/4 128/3/4
f 129/3/4 130/3/4 131/3/4
f 131/3/4 130/3/4 132/3/4
f 133/1/4 134/1/4 135/1/4
f 135/1/4 134/1/4 136/1/4
f 137/1/4 138/1/4 139/1/4
f 139/1/4 138/1/4 140/1/4
f 141/3/4 142/3/4 143/3/4
f 143/3/4 142/3/4 144/3/4
f 145/3/4 146/3/4 147/3/4
f 147/3/4 146/3/4 148/3/4
f 149/1/4 150/1/4 151/1/4
f 151/1/4 150/1/4 152/1/4
f 153/1/4 154/1/4 155/1/4
f 155/1/4 154/1/4 156/1/4
f 157/2/4 158/2/4 159/2/4
f 159/2/4 158/2/4 160/2/4
f 165/3/5 162/3/5 161/3/5
f 166/3/5 162/3/5 165/3/5
f 167/3/5 164/3/5 163/3/5
f 168/3/5 164/3/5 167/3/5
f 173/3/5 170/3/5 169/3/5
f 174/3/5 170/3/5 173/3/5
f 175/3/5 172/3/5 171/3/5
f 176/3/5 172/3/5 175/3/5
f 181/1/5 178/1/5 177/1/5
f 182/1/5 178/1/5 181/1/5
f 183/1/5 180/1/5 179/1/5
f 184/1/5 180/1/5 183/1/5
f 185/1/5 181/1/5 177/1/5
f 186/1/5 178/1/5 182/1/5
f 187/1/5 183/1/5 179/1/5
f 188/1/5 180/1/5 184/1/5
f 189/1/5 185/1/5 177/1/5
f 189/1/5 186/1/5 185/1/5
f 190/1/5 178/1/5 186/1/5
f 190/1/5 186/1/5 189/1/5
f 191/1/5 188/1/5 187/1/5
f 191/1/5 187/1/5 179/1/5
f 192/1/5 180/1/5 188/1/5
f 192/1/5 188/1/5 191/1/5
f 197/1/5 194/1/5 193/1/5
f 198/1/5 194/1/5 197/1/5
f 199/1/5 196/1/5 195/1/5
f 200/1/5 196/1/5 199/1/5
f 201/1/5 197/1/5 193/1/5
f 202/1/5 194/1/5 198/1/5
f 203/1/5 199/1/5 195/1/5
f 204/1/5 196/1/5 200/1/5
f 205/1/5 201/1/5 193/1/5
f 205/1/5 202/1/5 201/1/5
f 206/1/5 194/1/5 202/1/5
f 206/1/5 202/1/5 205/1/5
f 207/1/5 204/1/5 203/1/5
f 207/1/5 203/1/5 195/1/5
f 208/1/5 196/1/5 204/1/5
f 208/1/5 204/1/5 207/1/5
f 211/2/5 210/2/5 209/2/5
f 212/2/5 210/2/5 211/2/5
f 213/2/5 210/2/5 212/2/5
f 214/2/5 210/2/5 213/2/5
f 215/2/5 211/2/5 209/2/5
f 216/2/5 213/2/5 212/2/5
f 217/2/5 213/2/5 216/2/5
f 218/2/5 210/2/5 214/2/5
f 219/2/5 217/2/5 216/2/5
f 219/2/5 218/2/5 217/2/5
f 219/2/5 215/2/5 209/2/5
f 219/2/5 216/2/5 215/2/5
f 220/2/5 218/2/5 219/2/5
f 221/2/5 218/2/5 220/2/5
f 222/2/5 210/2/5 218/2/5
f 222/2/5 218/2/5 221/2/5
f 223/2/5 219/2/5 209/2/5
f 224/2/5 221/2/5 220/2/5
f 225/2/5 221/2/5 224/2/5
f 226/2/5 210/2/5 222/2/5
f 227/2/5 223/2/5 209/2/5
f 227/2/5 226/2/5 225/2/5
f 227/2/5 225/2/5 224/2/5
f 227/2/5 224/2/5 223/2/5
f 228/2/5 210/2/5 226/2/5
f 228/2/5 226/2/5 227/2/5
f 229/2/6 230/2/6 231/2/6
f 231/2/6 230/2/6 232/2/6
f 233/2/6 234/2/6 235/2/6
f 235/2/6 234/2/6 236/2/6
f 235/1/6 236/1/6 237/1/6
f 237/1/6 236/1/6 238/1/6
f 235/1/6 237/1/6 239/1/6
f 238/1/6 236/1/6 240/1/6
f 233/2/6 235/2/6 241/2/6
f 239/1/6 240/1/6 241/1/6
f 235/1/6 239/1/6 241/1/6
f 240/1/6 236/1/6 242/1/6
f 241/1/6 240/1/6 242/1/6
f 236/2/6 234/2/6 242/2/6
f 233/2/6 241/2/6 243/2/6
f 241/2/6 242/2/6 243/2/6
f 242/2/6 234/2/6 244/2/6
f 243/2/6 242/2/6 244/2/6
