# MagicaVoxel @ Ephtracy

# group
o 

# material
mtllib Колунин Vr Arbuz.mtl
usemtl palette

# normals
vn -1 0 0
vn 1 0 0
vn 0 0 1
vn 0 0 -1
vn 0 -1 0
vn 0 1 0

# texcoords
vt 0.845703 0.5
vt 0.896484 0.5
vt 0.904297 0.5
vt 0.994141 0.5

# verts
v 1.8 1 1.6
v 1.8 1 1.5
v 1.8 1 1.4
v 1.8 1 1.3
v 1.8 1.1 1.3
v 1.8 1.1 1.2
v 1.8 1.2 1.7
v 1.8 1.2 1.6
v 1.8 1.2 1.5
v 1.8 1.2 1.4
v 1.8 1.2 1.2
v 1.8 1.2 1
v 1.8 1.3 1
v 1.8 1.3 0.9
v 1.8 1.4 1.8
v 1.8 1.4 1.7
v 1.8 1.4 1.6
v 1.8 1.4 1.5
v 1.8 1.4 1.4
v 1.8 1.4 1.3
v 1.8 1.4 0.9
v 1.8 1.4 0.8
v 1.8 1.5 1.4
v 1.8 1.5 1.3
v 1.8 1.5 0.8
v 1.8 1.5 0.7
v 1.8 1.6 0.9
v 1.8 1.6 0.8
v 1.8 1.6 0.7
v 1.8 1.6 0.6
v 1.8 1.7 1.5
v 1.8 1.7 1.4
v 1.8 1.7 0.9
v 1.8 1.7 0.8
v 1.8 1.7 0.6
v 1.8 1.7 0.5
v 1.8 1.8 1.5
v 1.8 1.8 1.4
v 1.8 1.8 1.2
v 1.8 1.8 1.1
v 1.8 1.8 0.5
v 1.8 1.8 0.4
v 1.8 1.9 1.2
v 1.8 1.9 1.1
v 1.8 1.9 0.7
v 1.8 1.9 0.6
v 1.8 2 0.7
v 1.8 2 0.6
v 1.8 2 0.5
v 1.8 2 0.4
v 1.8 2.1 1.5
v 1.8 2.1 1.4
v 1.8 2.1 1
v 1.8 2.1 0.9
v 1.8 2.1 0.6
v 1.8 2.1 0.5
v 1.8 2.2 1.5
v 1.8 2.2 1.4
v 1.8 2.2 1.3
v 1.8 2.2 1.2
v 1.8 2.2 1
v 1.8 2.2 0.9
v 1.8 2.2 0.7
v 1.8 2.2 0.6
v 1.8 2.3 1.3
v 1.8 2.3 1.2
v 1.8 2.3 0.8
v 1.8 2.3 0.7
v 1.8 2.4 1.8
v 1.8 2.4 1.7
v 1.8 2.4 1.6
v 1.8 2.4 1.5
v 1.8 2.4 0.9
v 1.8 2.4 0.8
v 1.8 2.5 1
v 1.8 2.5 0.9
v 1.8 2.6 1.7
v 1.8 2.6 1.6
v 1.8 2.6 1.5
v 1.8 2.6 1.4
v 1.8 2.6 1.2
v 1.8 2.6 1
v 1.8 2.7 1.3
v 1.8 2.7 1.2
v 1.8 2.8 1.6
v 1.8 2.8 1.5
v 1.8 2.8 1.4
v 1.8 2.8 1.3
v 2 1 1.6
v 2 1 1.5
v 2 1 1.4
v 2 1 1.3
v 2 1.1 1.3
v 2 1.1 1.2
v 2 1.2 1.7
v 2 1.2 1.6
v 2 1.2 1.5
v 2 1.2 1.4
v 2 1.2 1.2
v 2 1.2 1
v 2 1.3 1
v 2 1.3 0.9
v 2 1.4 1.8
v 2 1.4 1.7
v 2 1.4 1.6
v 2 1.4 1.5
v 2 1.4 0.9
v 2 1.4 0.8
v 2 1.5 0.8
v 2 1.5 0.7
v 2 1.6 0.7
v 2 1.6 0.6
v 2 1.7 0.6
v 2 1.7 0.5
v 2 1.8 0.5
v 2 1.8 0.4
v 2 2 0.5
v 2 2 0.4
v 2 2.1 0.6
v 2 2.1 0.5
v 2 2.2 0.7
v 2 2.2 0.6
v 2 2.3 0.8
v 2 2.3 0.7
v 2 2.4 1.8
v 2 2.4 1.7
v 2 2.4 1.6
v 2 2.4 1.5
v 2 2.4 0.9
v 2 2.4 0.8
v 2 2.5 1
v 2 2.5 0.9
v 2 2.6 1.7
v 2 2.6 1.6
v 2 2.6 1.5
v 2 2.6 1.4
v 2 2.6 1.2
v 2 2.6 1
v 2 2.7 1.3
v 2 2.7 1.2
v 2 2.8 1.6
v 2 2.8 1.5
v 2 2.8 1.4
v 2 2.8 1.3
v 1.8 1.4 1.8
v 1.8 2.4 1.8
v 2 1.4 1.8
v 2 2.4 1.8
v 1.8 1.2 1.7
v 1.8 1.4 1.7
v 1.8 2.4 1.7
v 1.8 2.6 1.7
v 2 1.2 1.7
v 2 1.4 1.7
v 2 2.4 1.7
v 2 2.6 1.7
v 1.8 1 1.6
v 1.8 1.2 1.6
v 1.8 2.6 1.6
v 1.8 2.8 1.6
v 2 1 1.6
v 2 1.2 1.6
v 2 2.6 1.6
v 2 2.8 1.6
v 1.8 1 1.3
v 1.8 1.1 1.3
v 1.8 2.7 1.3
v 1.8 2.8 1.3
v 2 1 1.3
v 2 1.1 1.3
v 2 2.7 1.3
v 2 2.8 1.3
v 1.8 1.1 1.2
v 1.8 1.2 1.2
v 1.8 2.6 1.2
v 1.8 2.7 1.2
v 2 1.1 1.2
v 2 1.2 1.2
v 2 2.6 1.2
v 2 2.7 1.2
v 1.8 1.2 1
v 1.8 1.3 1
v 1.8 2.5 1
v 1.8 2.6 1
v 2 1.2 1
v 2 1.3 1
v 2 2.5 1
v 2 2.6 1
v 1.8 1.3 0.9
v 1.8 1.4 0.9
v 1.8 2.4 0.9
v 1.8 2.5 0.9
v 2 1.3 0.9
v 2 1.4 0.9
v 2 2.4 0.9
v 2 2.5 0.9
v 1.8 1.4 0.8
v 1.8 1.5 0.8
v 1.8 2.3 0.8
v 1.8 2.4 0.8
v 2 1.4 0.8
v 2 1.5 0.8
v 2 2.3 0.8
v 2 2.4 0.8
v 1.8 1.5 0.7
v 1.8 1.6 0.7
v 1.8 2.2 0.7
v 1.8 2.3 0.7
v 2 1.5 0.7
v 2 1.6 0.7
v 2 2.2 0.7
v 2 2.3 0.7
v 1.8 1.6 0.6
v 1.8 1.7 0.6
v 1.8 2.1 0.6
v 1.8 2.2 0.6
v 2 1.6 0.6
v 2 1.7 0.6
v 2 2.1 0.6
v 2 2.2 0.6
v 1.8 1.7 0.5
v 1.8 1.8 0.5
v 1.8 2 0.5
v 1.8 2.1 0.5
v 2 1.7 0.5
v 2 1.8 0.5
v 2 2 0.5
v 2 2.1 0.5
v 1.8 1.8 0.4
v 1.8 2 0.4
v 2 1.8 0.4
v 2 2 0.4
v 1.8 1 1.6
v 2 1 1.6
v 1.8 1 1.5
v 2 1 1.5
v 1.8 1 1.4
v 2 1 1.4
v 1.8 1 1.3
v 2 1 1.3
v 1.8 1.1 1.3
v 2 1.1 1.3
v 1.8 1.1 1.2
v 2 1.1 1.2
v 1.8 1.2 1.7
v 2 1.2 1.7
v 1.8 1.2 1.6
v 2 1.2 1.6
v 1.8 1.2 1.2
v 2 1.2 1.2
v 1.8 1.2 1
v 2 1.2 1
v 1.8 1.3 1
v 2 1.3 1
v 1.8 1.3 0.9
v 2 1.3 0.9
v 1.8 1.4 1.8
v 2 1.4 1.8
v 1.8 1.4 1.7
v 2 1.4 1.7
v 1.8 1.4 0.9
v 2 1.4 0.9
v 1.8 1.4 0.8
v 2 1.4 0.8
v 1.8 1.5 0.8
v 2 1.5 0.8
v 1.8 1.5 0.7
v 2 1.5 0.7
v 1.8 1.6 0.7
v 2 1.6 0.7
v 1.8 1.6 0.6
v 2 1.6 0.6
v 1.8 1.7 0.6
v 2 1.7 0.6
v 1.8 1.7 0.5
v 2 1.7 0.5
v 1.8 1.8 0.5
v 2 1.8 0.5
v 1.8 1.8 0.4
v 2 1.8 0.4
v 1.8 2 0.5
v 2 2 0.5
v 1.8 2 0.4
v 2 2 0.4
v 1.8 2.1 0.6
v 2 2.1 0.6
v 1.8 2.1 0.5
v 2 2.1 0.5
v 1.8 2.2 0.7
v 2 2.2 0.7
v 1.8 2.2 0.6
v 2 2.2 0.6
v 1.8 2.3 0.8
v 2 2.3 0.8
v 1.8 2.3 0.7
v 2 2.3 0.7
v 1.8 2.4 1.8
v 2 2.4 1.8
v 1.8 2.4 1.7
v 2 2.4 1.7
v 1.8 2.4 0.9
v 2 2.4 0.9
v 1.8 2.4 0.8
v 2 2.4 0.8
v 1.8 2.5 1
v 2 2.5 1
v 1.8 2.5 0.9
v 2 2.5 0.9
v 1.8 2.6 1.7
v 2 2.6 1.7
v 1.8 2.6 1.6
v 2 2.6 1.6
v 1.8 2.6 1.2
v 2 2.6 1.2
v 1.8 2.6 1
v 2 2.6 1
v 1.8 2.7 1.3
v 2 2.7 1.3
v 1.8 2.7 1.2
v 2 2.7 1.2
v 1.8 2.8 1.6
v 2 2.8 1.6
v 1.8 2.8 1.5
v 2 2.8 1.5
v 1.8 2.8 1.4
v 2 2.8 1.4
v 1.8 2.8 1.3
v 2 2.8 1.3

# faces
f 5/1/1 4/1/1 3/1/1
f 8/3/1 2/3/1 1/3/1
f 9/2/1 3/2/1 2/2/1
f 9/3/1 2/3/1 8/3/1
f 10/1/1 6/1/1 5/1/1
f 10/2/1 3/2/1 9/2/1
f 10/1/1 5/1/1 3/1/1
f 11/1/1 6/1/1 10/1/1
f 13/1/1 10/1/1 9/1/1
f 13/1/1 12/1/1 11/1/1
f 13/1/1 11/1/1 10/1/1
f 16/3/1 8/3/1 7/3/1
f 17/2/1 9/2/1 8/2/1
f 17/3/1 8/3/1 16/3/1
f 18/1/1 14/1/1 13/1/1
f 18/2/1 9/2/1 17/2/1
f 18/1/1 13/1/1 9/1/1
f 19/1/1 14/1/1 18/1/1
f 20/1/1 14/1/1 19/1/1
f 21/1/1 14/1/1 20/1/1
f 23/1/1 18/1/1 17/1/1
f 23/1/1 19/1/1 18/1/1
f 23/4/1 20/4/1 19/4/1
f 24/1/1 22/1/1 21/1/1
f 24/4/1 20/4/1 23/4/1
f 24/1/1 21/1/1 20/1/1
f 25/1/1 22/1/1 24/1/1
f 27/1/1 24/1/1 23/1/1
f 27/1/1 26/1/1 25/1/1
f 27/1/1 25/1/1 24/1/1
f 28/1/1 26/1/1 27/1/1
f 29/1/1 26/1/1 28/1/1
f 31/1/1 23/1/1 17/1/1
f 31/1/1 27/1/1 23/1/1
f 32/1/1 27/1/1 31/1/1
f 33/4/1 28/4/1 27/4/1
f 33/1/1 27/1/1 32/1/1
f 34/1/1 30/1/1 29/1/1
f 34/4/1 28/4/1 33/4/1
f 34/1/1 29/1/1 28/1/1
f 35/1/1 30/1/1 34/1/1
f 37/1/1 31/1/1 17/1/1
f 37/4/1 32/4/1 31/4/1
f 38/1/1 33/1/1 32/1/1
f 38/4/1 32/4/1 37/4/1
f 38/1/1 36/1/1 35/1/1
f 38/1/1 34/1/1 33/1/1
f 38/1/1 35/1/1 34/1/1
f 39/1/1 36/1/1 38/1/1
f 40/1/1 36/1/1 39/1/1
f 41/1/1 36/1/1 40/1/1
f 43/1/1 38/1/1 37/1/1
f 43/1/1 39/1/1 38/1/1
f 43/4/1 40/4/1 39/4/1
f 44/1/1 42/1/1 41/1/1
f 44/4/1 40/4/1 43/4/1
f 44/1/1 41/1/1 40/1/1
f 45/1/1 42/1/1 44/1/1
f 46/1/1 42/1/1 45/1/1
f 47/1/1 44/1/1 43/1/1
f 47/1/1 45/1/1 44/1/1
f 47/4/1 46/4/1 45/4/1
f 48/1/1 42/1/1 46/1/1
f 48/4/1 46/4/1 47/4/1
f 49/1/1 42/1/1 48/1/1
f 50/1/1 42/1/1 49/1/1
f 51/1/1 37/1/1 17/1/1
f 51/1/1 43/1/1 37/1/1
f 51/1/1 49/1/1 48/1/1
f 51/1/1 48/1/1 47/1/1
f 51/1/1 47/1/1 43/1/1
f 52/1/1 49/1/1 51/1/1
f 53/1/1 49/1/1 52/1/1
f 54/1/1 49/1/1 53/1/1
f 55/1/1 49/1/1 54/1/1
f 56/1/1 49/1/1 55/1/1
f 57/1/1 51/1/1 17/1/1
f 57/4/1 52/4/1 51/4/1
f 58/1/1 53/1/1 52/1/1
f 58/4/1 52/4/1 57/4/1
f 59/1/1 53/1/1 58/1/1
f 60/1/1 53/1/1 59/1/1
f 61/4/1 54/4/1 53/4/1
f 61/1/1 53/1/1 60/1/1
f 62/1/1 55/1/1 54/1/1
f 62/4/1 54/4/1 61/4/1
f 63/1/1 55/1/1 62/1/1
f 64/1/1 55/1/1 63/1/1
f 65/4/1 60/4/1 59/4/1
f 65/1/1 58/1/1 57/1/1
f 65/1/1 59/1/1 58/1/1
f 66/1/1 61/1/1 60/1/1
f 66/4/1 60/4/1 65/4/1
f 66/1/1 63/1/1 62/1/1
f 66/1/1 62/1/1 61/1/1
f 67/1/1 63/1/1 66/1/1
f 68/1/1 63/1/1 67/1/1
f 69/3/1 16/3/1 15/3/1
f 70/2/1 17/2/1 16/2/1
f 70/3/1 16/3/1 69/3/1
f 71/1/1 65/1/1 57/1/1
f 71/2/1 17/2/1 70/2/1
f 71/1/1 57/1/1 17/1/1
f 71/1/1 67/1/1 66/1/1
f 71/1/1 66/1/1 65/1/1
f 72/1/1 67/1/1 71/1/1
f 73/1/1 67/1/1 72/1/1
f 74/1/1 67/1/1 73/1/1
f 75/1/1 73/1/1 72/1/1
f 76/1/1 73/1/1 75/1/1
f 77/3/1 71/3/1 70/3/1
f 78/2/1 72/2/1 71/2/1
f 78/3/1 71/3/1 77/3/1
f 79/1/1 75/1/1 72/1/1
f 79/2/1 72/2/1 78/2/1
f 80/1/1 75/1/1 79/1/1
f 81/1/1 75/1/1 80/1/1
f 82/1/1 75/1/1 81/1/1
f 83/1/1 81/1/1 80/1/1
f 84/1/1 81/1/1 83/1/1
f 85/3/1 79/3/1 78/3/1
f 86/2/1 80/2/1 79/2/1
f 86/3/1 79/3/1 85/3/1
f 87/1/1 83/1/1 80/1/1
f 87/2/1 80/2/1 86/2/1
f 88/1/1 83/1/1 87/1/1
f 91/1/2 92/1/2 93/1/2
f 89/3/2 90/3/2 96/3/2
f 90/2/2 91/2/2 97/2/2
f 96/3/2 90/3/2 97/3/2
f 93/1/2 94/1/2 98/1/2
f 97/2/2 91/2/2 98/2/2
f 91/1/2 93/1/2 98/1/2
f 98/1/2 94/1/2 99/1/2
f 97/1/2 98/1/2 101/1/2
f 99/1/2 100/1/2 101/1/2
f 98/1/2 99/1/2 101/1/2
f 95/3/2 96/3/2 104/3/2
f 96/2/2 97/2/2 105/2/2
f 104/3/2 96/3/2 105/3/2
f 101/1/2 102/1/2 106/1/2
f 105/2/2 97/2/2 106/2/2
f 97/1/2 101/1/2 106/1/2
f 106/1/2 102/1/2 107/1/2
f 105/1/2 106/1/2 109/1/2
f 107/1/2 108/1/2 109/1/2
f 106/1/2 107/1/2 109/1/2
f 109/1/2 110/1/2 111/1/2
f 111/1/2 112/1/2 113/1/2
f 113/1/2 114/1/2 115/1/2
f 113/1/2 115/1/2 117/1/2
f 115/1/2 116/1/2 117/1/2
f 117/1/2 116/1/2 118/1/2
f 111/1/2 113/1/2 119/1/2
f 113/1/2 117/1/2 119/1/2
f 119/1/2 117/1/2 120/1/2
f 109/1/2 111/1/2 121/1/2
f 111/1/2 119/1/2 121/1/2
f 121/1/2 119/1/2 122/1/2
f 105/1/2 109/1/2 123/1/2
f 109/1/2 121/1/2 123/1/2
f 123/1/2 121/1/2 124/1/2
f 103/3/2 104/3/2 125/3/2
f 104/2/2 105/2/2 126/2/2
f 125/3/2 104/3/2 126/3/2
f 105/1/2 123/1/2 127/1/2
f 126/2/2 105/2/2 127/2/2
f 127/1/2 123/1/2 128/1/2
f 128/1/2 123/1/2 129/1/2
f 129/1/2 123/1/2 130/1/2
f 128/1/2 129/1/2 131/1/2
f 131/1/2 129/1/2 132/1/2
f 126/3/2 127/3/2 133/3/2
f 127/2/2 128/2/2 134/2/2
f 133/3/2 127/3/2 134/3/2
f 128/1/2 131/1/2 135/1/2
f 134/2/2 128/2/2 135/2/2
f 135/1/2 131/1/2 136/1/2
f 136/1/2 131/1/2 137/1/2
f 137/1/2 131/1/2 138/1/2
f 136/1/2 137/1/2 139/1/2
f 139/1/2 137/1/2 140/1/2
f 134/3/2 135/3/2 141/3/2
f 135/2/2 136/2/2 142/2/2
f 141/3/2 135/3/2 142/3/2
f 136/1/2 139/1/2 143/1/2
f 142/2/2 136/2/2 143/2/2
f 143/1/2 139/1/2 144/1/2
f 147/3/3 146/3/3 145/3/3
f 148/3/3 146/3/3 147/3/3
f 153/3/3 150/3/3 149/3/3
f 154/3/3 150/3/3 153/3/3
f 155/3/3 152/3/3 151/3/3
f 156/3/3 152/3/3 155/3/3
f 161/3/3 158/3/3 157/3/3
f 162/3/3 158/3/3 161/3/3
f 163/3/3 160/3/3 159/3/3
f 164/3/3 160/3/3 163/3/3
f 165/1/4 166/1/4 169/1/4
f 169/1/4 166/1/4 170/1/4
f 167/1/4 168/1/4 171/1/4
f 171/1/4 168/1/4 172/1/4
f 173/1/4 174/1/4 177/1/4
f 177/1/4 174/1/4 178/1/4
f 175/1/4 176/1/4 179/1/4
f 179/1/4 176/1/4 180/1/4
f 181/1/4 182/1/4 185/1/4
f 185/1/4 182/1/4 186/1/4
f 183/1/4 184/1/4 187/1/4
f 187/1/4 184/1/4 188/1/4
f 189/1/4 190/1/4 193/1/4
f 193/1/4 190/1/4 194/1/4
f 191/1/4 192/1/4 195/1/4
f 195/1/4 192/1/4 196/1/4
f 197/1/4 198/1/4 201/1/4
f 201/1/4 198/1/4 202/1/4
f 199/1/4 200/1/4 203/1/4
f 203/1/4 200/1/4 204/1/4
f 205/1/4 206/1/4 209/1/4
f 209/1/4 206/1/4 210/1/4
f 207/1/4 208/1/4 211/1/4
f 211/1/4 208/1/4 212/1/4
f 213/1/4 214/1/4 217/1/4
f 217/1/4 214/1/4 218/1/4
f 215/1/4 216/1/4 219/1/4
f 219/1/4 216/1/4 220/1/4
f 221/1/4 222/1/4 225/1/4
f 225/1/4 222/1/4 226/1/4
f 223/1/4 224/1/4 227/1/4
f 227/1/4 224/1/4 228/1/4
f 229/1/4 230/1/4 231/1/4
f 231/1/4 230/1/4 232/1/4
f 235/3/5 234/3/5 233/3/5
f 236/3/5 234/3/5 235/3/5
f 237/2/5 236/2/5 235/2/5
f 238/2/5 236/2/5 237/2/5
f 239/1/5 238/1/5 237/1/5
f 240/1/5 238/1/5 239/1/5
f 243/1/5 242/1/5 241/1/5
f 244/1/5 242/1/5 243/1/5
f 247/3/5 246/3/5 245/3/5
f 248/3/5 246/3/5 247/3/5
f 251/1/5 250/1/5 249/1/5
f 252/1/5 250/1/5 251/1/5
f 255/1/5 254/1/5 253/1/5
f 256/1/5 254/1/5 255/1/5
f 259/3/5 258/3/5 257/3/5
f 260/3/5 258/3/5 259/3/5
f 263/1/5 262/1/5 261/1/5
f 264/1/5 262/1/5 263/1/5
f 267/1/5 266/1/5 265/1/5
f 268/1/5 266/1/5 267/1/5
f 271/1/5 270/1/5 269/1/5
f 272/1/5 270/1/5 271/1/5
f 275/1/5 274/1/5 273/1/5
f 276/1/5 274/1/5 275/1/5
f 279/1/5 278/1/5 277/1/5
f 280/1/5 278/1/5 279/1/5
f 281/1/6 282/1/6 283/1/6
f 283/1/6 282/1/6 284/1/6
f 285/1/6 286/1/6 287/1/6
f 287/1/6 286/1/6 288/1/6
f 289/1/6 290/1/6 291/1/6
f 291/1/6 290/1/6 292/1/6
f 293/1/6 294/1/6 295/1/6
f 295/1/6 294/1/6 296/1/6
f 297/3/6 298/3/6 299/3/6
f 299/3/6 298/3/6 300/3/6
f 301/1/6 302/1/6 303/1/6
f 303/1/6 302/1/6 304/1/6
f 305/1/6 306/1/6 307/1/6
f 307/1/6 306/1/6 308/1/6
f 309/3/6 310/3/6 311/3/6
f 311/3/6 310/3/6 312/3/6
f 313/1/6 314/1/6 315/1/6
f 315/1/6 314/1/6 316/1/6
f 317/1/6 318/1/6 319/1/6
f 319/1/6 318/1/6 320/1/6
f 321/3/6 322/3/6 323/3/6
f 323/3/6 322/3/6 324/3/6
f 323/2/6 324/2/6 325/2/6
f 325/2/6 324/2/6 326/2/6
f 325/1/6 326/1/6 327/1/6
f 327/1/6 326/1/6 328/1/6
